<svg width="72" height="72" viewBox="0 0 72 72" fill="none" xmlns="http://www.w3.org/2000/svg">
<rect width="72" height="72" rx="36" fill="black"/>
<path d="M49.3439 42.2412C46.9411 41.0281 44.3009 40.1928 41.7012 39.6681C41.0863 39.0082 40.6634 38.1929 40.478 37.3101C42.0873 36.0515 43.3193 34.1637 43.9943 31.9148C45.8581 31.6326 46.3428 28.7687 45.6036 27.2004C48.9977 12.3268 23.0903 12.2959 26.4038 27.168C25.626 28.7355 26.11 31.6381 27.9955 31.9163C28.6616 34.1652 29.9025 36.0531 31.5118 37.3116C31.3193 38.2332 30.8697 39.0815 30.2149 39.758C28.9844 39.9732 28.2269 40.1544 28.2106 40.1722C23.1691 41.5599 18.6952 43.1195 19.3095 49.3255C19.0535 58.2147 52.933 58.223 52.6908 49.3258C52.957 46.5257 52.053 43.518 49.3439 42.2412ZM36.017 17.2232C41.8654 17.1426 45.3098 20.9892 44.5513 26.1805C44.2055 26.014 43.7902 26.0067 43.418 26.0906C43.2707 25.6485 43.0305 24.9396 42.6178 23.7887C42.5654 23.6867 42.4797 23.5944 42.4115 23.5013C37.1413 19.9947 34.9412 26.4967 30.209 23.4822C30.181 23.4645 30.1618 23.4483 30.1368 23.4291C29.8951 23.3675 29.6242 23.4084 29.4707 23.6266C28.9809 24.613 28.7235 25.7063 28.5614 26.0907C28.204 25.9992 27.8118 26.0068 27.4738 26.1629C26.7152 20.9759 30.1705 17.1443 36.017 17.2232ZM29.0212 31.0895C28.721 30.3303 28.2229 30.8702 27.8967 30.6209C27.1569 30.118 26.973 27.5467 27.9234 27.2769C28.4175 27.1144 28.854 27.744 29.3174 27.383C29.4473 27.2808 29.534 27.1335 29.5606 26.9704C29.6048 26.7714 29.9187 25.8547 30.2621 24.9072C35.6558 27.3825 36.8159 21.74 41.5568 24.3972C42.1817 25.9232 42.1953 26.7326 42.6708 27.3816C43.1327 27.7448 43.5723 27.1087 44.0651 27.2755C44.4438 27.3815 44.802 28.1022 44.7135 29.0734C44.6398 29.8825 44.3348 30.3997 44.093 30.6194C43.742 30.8472 43.2088 30.3326 42.9686 31.088C40.8193 39.8205 31.162 39.8226 29.0212 31.0895ZM32.592 38.0322C33.6296 38.6214 34.8024 38.9312 35.9956 38.9312C37.1888 38.9312 38.3616 38.6214 39.3992 38.0322C39.6605 38.9394 40.1316 39.7724 40.7742 40.4639C40.4603 41.4528 38.2011 43.3244 35.9993 44.6905C33.7887 43.3244 31.5295 41.4483 31.223 40.4639C31.8628 39.7712 32.3316 38.9385 32.592 38.0322ZM20.5236 49.3255C20.073 44.3771 22.7857 43.15 26.9432 41.7917C26.7517 42.5856 26.6041 43.3895 26.5011 44.1997C23.923 44.9777 24.0624 47.35 24.4673 49.5244C23.9016 50.2936 24.8579 51.341 25.6744 50.8374C26.283 50.5051 26.2597 49.5671 25.6463 49.2547C25.4173 47.6612 24.9813 45.6913 27.1634 45.3672C29.231 45.2758 29.2694 47.2786 29.4265 48.7934C28.8962 49.2517 29.1354 50.1656 29.8112 50.3284C30.7004 50.599 31.3728 49.3819 30.6394 48.7934C30.5057 46.7481 30.1867 44.4669 27.7258 44.1365C27.8592 43.2116 28.0507 42.2961 28.2991 41.3953C28.6932 41.2918 28.8747 41.2322 30.1516 40.9989C30.9341 42.8337 34.1911 44.9927 35.3951 45.7296V54.7754C28.317 54.4855 20.5295 53.0376 20.5236 49.3255ZM51.472 49.3255C51.4701 53.0303 43.6845 54.4873 36.5976 54.7753V45.7295C37.8208 44.9735 41.122 42.782 41.8602 40.9458C42.4573 41.059 43.0343 41.2072 43.6037 41.3584C43.9498 42.6245 44.1846 43.9185 44.3052 45.2255C41.4868 46.2399 42.9241 50.4566 45.775 49.5387C47.9305 48.8787 47.7259 45.561 45.5195 45.1548C45.4122 44.0133 45.2256 42.8807 44.961 41.7651C49.1398 43.1144 51.9387 44.3483 51.472 49.3255ZM45.0421 46.3058C46.4268 46.3195 46.4302 48.4205 45.0411 48.427C43.6511 48.4174 43.6604 46.3171 45.0451 46.3058H45.0421Z" fill="url(#paint0_linear_924_1089)"/>
<defs>
<linearGradient id="paint0_linear_924_1089" x1="24.9552" y1="50.3922" x2="52.5727" y2="28.9024" gradientUnits="userSpaceOnUse">
<stop stop-color="#C6972F"/>
<stop offset="0.0705882" stop-color="#BD8B20"/>
<stop offset="0.14902" stop-color="#B37E10"/>
<stop offset="0.290196" stop-color="#D6AE46"/>
<stop offset="0.431373" stop-color="#F8DD7B"/>
<stop offset="0.588235" stop-color="#FDF1A4"/>
<stop offset="0.729412" stop-color="#F8DD7B"/>
<stop offset="0.929412" stop-color="#B37E10"/>
<stop offset="0.960784" stop-color="#BF8E22"/>
<stop offset="1" stop-color="#CB9E34"/>
</linearGradient>
</defs>
</svg>
