<svg width="37" height="37" viewBox="0 0 37 37" fill="none" xmlns="http://www.w3.org/2000/svg">
<path d="M33.748 5.49219H3.25195C1.45521 5.49219 0 6.95643 0 8.74414V28.2559C0 30.0542 1.46591 31.5078 3.25195 31.5078H33.748C35.5298 31.5078 37 30.0603 37 28.2559V8.74414C37 6.95961 35.5506 5.49219 33.748 5.49219ZM33.2926 7.66016L20.7995 20.0875C20.1852 20.7017 19.3686 21.0399 18.5 21.0399C17.6314 21.0399 16.8148 20.7016 16.1985 20.0854L3.70737 7.66016H33.2926ZM2.16797 27.8146V9.18677L11.5363 18.5058L2.16797 27.8146ZM3.70874 29.3398L13.0734 20.0347L14.6675 21.6204C15.6913 22.6441 17.0523 23.2079 18.5 23.2079C19.9477 23.2079 21.3087 22.6441 22.3304 21.6225L23.9266 20.0347L33.2913 29.3398H3.70874ZM34.832 27.8146L25.4637 18.5058L34.832 9.18677V27.8146Z" fill="url(#paint0_linear_1150_7682)"/>
<defs>
<linearGradient id="paint0_linear_1150_7682" x1="12.3287" y1="5.49219" x2="35.4329" y2="11.5636" gradientUnits="userSpaceOnUse">
<stop stop-color="#C3942F"/>
<stop offset="0.234" stop-color="#D89C27"/>
<stop offset="0.449" stop-color="#E7DC96"/>
<stop offset="0.669" stop-color="#DFC86F"/>
<stop offset="0.849" stop-color="#D89C27"/>
<stop offset="1" stop-color="#C99C30"/>
</linearGradient>
</defs>
</svg>
