<svg width="19" height="16" viewBox="0 0 19 16" fill="none" xmlns="http://www.w3.org/2000/svg">
<path d="M9.5 1.54102C3.25 1.54102 0.75 8.00007 0.75 8.00007C0.75 8.00007 3.25 14.4577 9.5 14.4577C15.75 14.4577 18.25 8.00007 18.25 8.00007C18.25 8.00007 15.75 1.54102 9.5 1.54102V1.54102Z" stroke="white" stroke-width="1.5" stroke-linecap="round" stroke-linejoin="round"/>
<path d="M9.5 11.125C10.3288 11.125 11.1237 10.7958 11.7097 10.2097C12.2958 9.62366 12.625 8.8288 12.625 8C12.625 7.1712 12.2958 6.37634 11.7097 5.79029C11.1237 5.20424 10.3288 4.875 9.5 4.875C8.6712 4.875 7.87634 5.20424 7.29029 5.79029C6.70424 6.37634 6.375 7.1712 6.375 8C6.375 8.8288 6.70424 9.62366 7.29029 10.2097C7.87634 10.7958 8.6712 11.125 9.5 11.125V11.125Z" stroke="white" stroke-width="1.5" stroke-linecap="round" stroke-linejoin="round"/>
</svg>
