<svg width="37" height="37" viewBox="0 0 37 37" fill="none" xmlns="http://www.w3.org/2000/svg">
<g clip-path="url(#clip0_1150_7695)">
<path d="M7.53988 24.5951C11.1893 28.9575 15.5824 32.3923 20.5964 34.8226C22.5055 35.7273 25.0585 36.8007 27.9029 36.9847C28.0792 36.9923 28.2479 37 28.4243 37C30.3333 37 31.8666 36.3407 33.1163 34.9836C33.124 34.976 33.1393 34.9606 33.147 34.9453C33.5917 34.4086 34.0977 33.9256 34.6267 33.4119C34.987 33.0669 35.355 32.7066 35.7077 32.3386C37.3408 30.6366 37.3407 28.4745 35.6924 26.8261L31.0846 22.2184C30.3026 21.4057 29.3673 20.9764 28.3859 20.9764C27.4046 20.9764 26.4616 21.4057 25.6565 22.2107L22.9118 24.9555C22.6588 24.8098 22.3981 24.6794 22.1528 24.5568C21.8461 24.4034 21.5625 24.2578 21.3095 24.0968C18.8101 22.5097 16.5407 20.4397 14.371 17.7793C13.2746 16.3916 12.5386 15.2263 12.025 14.0379C12.7456 13.3862 13.4203 12.7039 14.072 12.0369C14.302 11.7992 14.5397 11.5615 14.7773 11.3239C15.6054 10.4959 16.05 9.53751 16.05 8.56382C16.05 7.59014 15.613 6.63179 14.7773 5.80377L12.4926 3.51906C12.2243 3.25073 11.9713 2.99005 11.7106 2.72172C11.2046 2.20037 10.6756 1.6637 10.1543 1.18069C9.36458 0.406341 8.4369 0 7.45555 0C6.48186 0 5.54651 0.406341 4.72616 1.18835L1.85878 4.05574C0.816093 5.09843 0.225749 6.36345 0.10308 7.82781C-0.0425895 9.66017 0.29475 11.6075 1.16877 13.9613C2.51046 17.603 4.53449 20.984 7.53988 24.5951ZM1.97378 7.98881C2.06578 6.96913 2.45679 6.11811 3.1928 5.3821L6.04485 2.53005C6.48953 2.1007 6.9802 1.87837 7.45555 1.87837C7.92322 1.87837 8.39856 2.1007 8.83557 2.54538C9.34925 3.02072 9.83226 3.51906 10.3536 4.04807C10.6143 4.31641 10.8826 4.58475 11.1509 4.86075L13.4357 7.14546C13.911 7.6208 14.1563 8.10381 14.1563 8.57915C14.1563 9.0545 13.911 9.53751 13.4357 10.0128C13.198 10.2505 12.9603 10.4959 12.7226 10.7335C12.0096 11.4542 11.3426 12.1366 10.6066 12.7882L10.5683 12.8266C9.93192 13.4629 10.0316 14.0686 10.1849 14.5286C10.1926 14.5516 10.2003 14.5669 10.2079 14.5899C10.7983 16.0083 11.6186 17.3576 12.899 18.9677C15.199 21.8044 17.6217 24.0048 20.2898 25.6991C20.6194 25.9138 20.9721 26.0825 21.3018 26.2511C21.6085 26.4045 21.8921 26.5501 22.1451 26.7111C22.1758 26.7265 22.1988 26.7418 22.2295 26.7571C22.4825 26.8875 22.7278 26.9488 22.9732 26.9488C23.5865 26.9488 23.9852 26.5578 24.1155 26.4275L26.9829 23.5601C27.4276 23.1154 27.9106 22.8777 28.3859 22.8777C28.9686 22.8777 29.4439 23.2381 29.7429 23.5601L34.366 28.1755C35.286 29.0955 35.2784 30.0922 34.343 31.0659C34.021 31.4109 33.6837 31.7406 33.3233 32.0856C32.7867 32.6069 32.227 33.1436 31.721 33.7493C30.8393 34.7 29.7889 35.1446 28.4319 35.1446C28.3016 35.1446 28.1636 35.137 28.0332 35.1293C25.5185 34.9683 23.1802 33.9869 21.4245 33.1513C16.6557 30.8436 12.4696 27.5698 8.99657 23.4144C6.13686 19.972 4.21249 16.7673 2.9398 13.3326C2.15012 11.2242 1.85111 9.52984 1.97378 7.98881Z" fill="url(#paint0_linear_1150_7695)"/>
</g>
<defs>
<linearGradient id="paint0_linear_1150_7695" x1="12.3524" y1="-3.02214e-07" x2="36.1525" y2="4.38093" gradientUnits="userSpaceOnUse">
<stop stop-color="#C3942F"/>
<stop offset="0.234" stop-color="#D89C27"/>
<stop offset="0.449" stop-color="#E7DC96"/>
<stop offset="0.669" stop-color="#DFC86F"/>
<stop offset="0.849" stop-color="#D89C27"/>
<stop offset="1" stop-color="#C99C30"/>
</linearGradient>
<clipPath id="clip0_1150_7695">
<path d="M0 0H22C30.2843 0 37 6.71573 37 15V37H15C6.71573 37 0 30.2843 0 22V0Z" fill="white"/>
</clipPath>
</defs>
</svg>
