<svg width="37" height="36" viewBox="0 0 37 36" fill="none" xmlns="http://www.w3.org/2000/svg">
<path d="M30.8163 13.6891V12.305C30.8163 8.99244 29.6441 5.91429 27.5189 3.63025C25.3407 1.28571 22.3458 0 19.0785 0H17.9365C14.6693 0 11.6743 1.28571 9.49618 3.63025C7.37097 5.91429 6.1987 8.99244 6.1987 12.305V13.6891C3.61971 13.863 1.57013 16.0109 1.57013 18.6353V20.7983C1.57013 23.5286 3.79366 25.7521 6.52391 25.7521H9.31467C9.81383 25.7521 10.2222 25.3437 10.2222 24.8445V14.5815C10.2222 14.0824 9.81383 13.674 9.31467 13.674H8.01383V12.305C8.01383 6.32269 12.2794 1.81513 17.929 1.81513H19.071C24.7281 1.81513 28.9861 6.32269 28.9861 12.305V13.674H27.6853C27.1861 13.674 26.7777 14.0824 26.7777 14.5815V24.837C26.7777 25.3361 27.1861 25.7445 27.6853 25.7445H28.9558C28.5853 30.479 25.3256 31.5756 23.813 31.8252C23.397 30.5471 22.1945 29.6244 20.7802 29.6244H18.5113C16.7567 29.6244 15.3273 31.0538 15.3273 32.8084C15.3273 34.563 16.7567 36 18.5113 36H20.7878C22.255 36 23.4878 35.0017 23.8584 33.6555C24.5995 33.5496 25.7718 33.2849 26.9365 32.6042C28.5777 31.6437 30.5214 29.6849 30.7785 25.737C33.3727 25.5782 35.4298 23.4227 35.4298 20.7908V18.6277C35.4374 16.0109 33.3953 13.8555 30.8163 13.6891ZM8.42223 23.9294H6.53904C4.8071 23.9294 3.40038 22.5227 3.40038 20.7908V18.6277C3.40038 16.8958 4.8071 15.4891 6.53904 15.4891H8.42223V23.9294ZM20.7878 34.1849H18.5113C17.755 34.1849 17.1424 33.5723 17.1424 32.816C17.1424 32.0597 17.755 31.4471 18.5113 31.4471H20.7878C21.5441 31.4471 22.1567 32.0597 22.1567 32.816C22.1567 33.5723 21.5441 34.1849 20.7878 34.1849ZM33.6222 20.7908C33.6222 22.5227 32.2155 23.9294 30.4836 23.9294H28.6004V15.4891H30.4836C32.2155 15.4891 33.6222 16.8958 33.6222 18.6277V20.7908Z" fill="url(#paint0_linear_388_1120)"/>
<defs>
<linearGradient id="paint0_linear_388_1120" x1="25.5332" y1="36" x2="3.17771" y2="29.7769" gradientUnits="userSpaceOnUse">
<stop stop-color="#C3942F"/>
<stop offset="0.18" stop-color="#D89C27"/>
<stop offset="0.37" stop-color="#DFC86F"/>
<stop offset="0.5" stop-color="#DFC86F"/>
<stop offset="0.82" stop-color="#D89C27"/>
<stop offset="1" stop-color="#C99C30"/>
</linearGradient>
</defs>
</svg>
