<svg width="73" height="72" viewBox="0 0 73 72" fill="none" xmlns="http://www.w3.org/2000/svg">
<rect x="0.5" width="72" height="72" rx="36" fill="black"/>
<path d="M48.8163 31.6891V30.305C48.8163 26.9924 47.6441 23.9143 45.5189 21.6303C43.3407 19.2857 40.3458 18 37.0785 18H35.9365C32.6693 18 29.6743 19.2857 27.4962 21.6303C25.371 23.9143 24.1987 26.9924 24.1987 30.305V31.6891C21.6197 31.863 19.5701 34.0109 19.5701 36.6353V38.7983C19.5701 41.5286 21.7937 43.7521 24.5239 43.7521H27.3147C27.8138 43.7521 28.2222 43.3437 28.2222 42.8445V32.5815C28.2222 32.0824 27.8138 31.674 27.3147 31.674H26.0138V30.305C26.0138 24.3227 30.2794 19.8151 35.929 19.8151H37.071C42.7281 19.8151 46.9861 24.3227 46.9861 30.305V31.674H45.6853C45.1861 31.674 44.7777 32.0824 44.7777 32.5815V42.837C44.7777 43.3361 45.1861 43.7445 45.6853 43.7445H46.9558C46.5853 48.479 43.3256 49.5756 41.813 49.8252C41.397 48.5471 40.1945 47.6244 38.7802 47.6244H36.5113C34.7567 47.6244 33.3273 49.0538 33.3273 50.8084C33.3273 52.563 34.7567 54 36.5113 54H38.7878C40.255 54 41.4878 53.0017 41.8584 51.6555C42.5995 51.5496 43.7718 51.2849 44.9365 50.6042C46.5777 49.6437 48.5214 47.6849 48.7785 43.737C51.3727 43.5782 53.4298 41.4227 53.4298 38.7908V36.6277C53.4374 34.0109 51.3953 31.8555 48.8163 31.6891ZM26.4222 41.9294H24.539C22.8071 41.9294 21.4004 40.5227 21.4004 38.7908V36.6277C21.4004 34.8958 22.8071 33.4891 24.539 33.4891H26.4222V41.9294ZM38.7878 52.1849H36.5113C35.755 52.1849 35.1424 51.5723 35.1424 50.816C35.1424 50.0597 35.755 49.4471 36.5113 49.4471H38.7878C39.5441 49.4471 40.1567 50.0597 40.1567 50.816C40.1567 51.5723 39.5441 52.1849 38.7878 52.1849ZM51.6222 38.7908C51.6222 40.5227 50.2155 41.9294 48.4836 41.9294H46.6004V33.4891H48.4836C50.2155 33.4891 51.6222 34.8958 51.6222 36.6277V38.7908Z" fill="url(#paint0_linear_388_1119)"/>
<defs>
<linearGradient id="paint0_linear_388_1119" x1="43.5332" y1="54" x2="21.1777" y2="47.7769" gradientUnits="userSpaceOnUse">
<stop stop-color="#C3942F"/>
<stop offset="0.18" stop-color="#D89C27"/>
<stop offset="0.37" stop-color="#DFC86F"/>
<stop offset="0.5" stop-color="#DFC86F"/>
<stop offset="0.82" stop-color="#D89C27"/>
<stop offset="1" stop-color="#C99C30"/>
</linearGradient>
</defs>
</svg>
