<svg width="37" height="37" viewBox="0 0 37 37" fill="none" xmlns="http://www.w3.org/2000/svg">
<path d="M24.677 24.4464C28.6142 18.2682 28.1193 19.039 28.2327 18.8779C29.6662 16.856 30.4238 14.4764 30.4238 11.9961C30.4238 5.41848 25.0862 0 18.5 0C11.9352 0 6.57617 5.40778 6.57617 11.9961C6.57617 14.4748 7.3497 16.9167 8.83014 18.9658L12.3229 24.4464C8.58855 25.0203 2.24023 26.7305 2.24023 30.4961C2.24023 31.8688 3.13618 33.825 7.40448 35.3494C10.3849 36.4138 14.3253 37 18.5 37C26.3065 37 34.7598 34.7979 34.7598 30.4961C34.7598 26.7298 28.4189 25.0215 24.677 24.4464ZM10.641 17.7734C10.6291 17.7547 10.6167 17.7365 10.6037 17.7186C9.37177 16.0238 8.74414 14.0153 8.74414 11.9961C8.74414 6.57487 13.1094 2.16797 18.5 2.16797C23.8794 2.16797 28.2559 6.57682 28.2559 11.9961C28.2559 14.0185 27.6401 15.9589 26.4748 17.609C26.3704 17.7468 26.9152 16.9004 18.5 30.1051L10.641 17.7734ZM18.5 34.832C9.97309 34.832 4.4082 32.3256 4.4082 30.4961C4.4082 29.2664 7.26761 27.2445 13.6039 26.4564L17.5858 32.7047C17.6838 32.8584 17.8189 32.9849 17.9786 33.0725C18.1384 33.1602 18.3177 33.2061 18.4999 33.2061C18.6822 33.2061 18.8615 33.1602 19.0212 33.0725C19.181 32.9849 19.3161 32.8584 19.414 32.7047L23.3959 26.4564C29.7323 27.2445 32.5918 29.2664 32.5918 30.4961C32.5918 32.3101 27.077 34.832 18.5 34.832Z" fill="url(#paint0_linear_1150_7688)"/>
<path d="M18.5 6.57617C15.5115 6.57617 13.0801 9.00755 13.0801 11.9961C13.0801 14.9846 15.5115 17.416 18.5 17.416C21.4885 17.416 23.9199 14.9846 23.9199 11.9961C23.9199 9.00755 21.4885 6.57617 18.5 6.57617ZM18.5 15.248C16.7069 15.248 15.248 13.7892 15.248 11.9961C15.248 10.203 16.7069 8.74414 18.5 8.74414C20.2931 8.74414 21.752 10.203 21.752 11.9961C21.752 13.7892 20.2931 15.248 18.5 15.248Z" fill="url(#paint1_linear_1150_7688)"/>
<defs>
<linearGradient id="paint0_linear_1150_7688" x1="13.076" y1="-3.02214e-07" x2="34.2269" y2="3.43482" gradientUnits="userSpaceOnUse">
<stop stop-color="#C3942F"/>
<stop offset="0.234" stop-color="#D89C27"/>
<stop offset="0.449" stop-color="#E7DC96"/>
<stop offset="0.669" stop-color="#DFC86F"/>
<stop offset="0.849" stop-color="#D89C27"/>
<stop offset="1" stop-color="#C99C30"/>
</linearGradient>
<linearGradient id="paint1_linear_1150_7688" x1="16.692" y1="6.57617" x2="23.6894" y2="7.86908" gradientUnits="userSpaceOnUse">
<stop stop-color="#C3942F"/>
<stop offset="0.234" stop-color="#D89C27"/>
<stop offset="0.449" stop-color="#E7DC96"/>
<stop offset="0.669" stop-color="#DFC86F"/>
<stop offset="0.849" stop-color="#D89C27"/>
<stop offset="1" stop-color="#C99C30"/>
</linearGradient>
</defs>
</svg>
