<svg width="20" height="15" viewBox="0 0 20 15" fill="none" xmlns="http://www.w3.org/2000/svg">
<path d="M19.375 2.125H0.625C0.45924 2.125 0.300269 2.05915 0.183058 1.94194C0.065848 1.82473 0 1.66576 0 1.5C0 1.33424 0.065848 1.17527 0.183058 1.05806C0.300269 0.940848 0.45924 0.875 0.625 0.875H19.375C19.5408 0.875 19.6997 0.940848 19.8169 1.05806C19.9342 1.17527 20 1.33424 20 1.5C20 1.66576 19.9342 1.82473 19.8169 1.94194C19.6997 2.05915 19.5408 2.125 19.375 2.125ZM19.375 8.375H0.625C0.45924 8.375 0.300269 8.30915 0.183058 8.19194C0.065848 8.07473 0 7.91576 0 7.75C0 7.58424 0.065848 7.42527 0.183058 7.30806C0.300269 7.19085 0.45924 7.125 0.625 7.125H19.375C19.5408 7.125 19.6997 7.19085 19.8169 7.30806C19.9342 7.42527 20 7.58424 20 7.75C20 7.91576 19.9342 8.07473 19.8169 8.19194C19.6997 8.30915 19.5408 8.375 19.375 8.375ZM19.375 14.625H0.625C0.45924 14.625 0.300269 14.5592 0.183058 14.4419C0.065848 14.3247 0 14.1658 0 14C0 13.8342 0.065848 13.6753 0.183058 13.5581C0.300269 13.4408 0.45924 13.375 0.625 13.375H19.375C19.5408 13.375 19.6997 13.4408 19.8169 13.5581C19.9342 13.6753 20 13.8342 20 14C20 14.1658 19.9342 14.3247 19.8169 14.4419C19.6997 14.5592 19.5408 14.625 19.375 14.625Z" fill="white"/>
</svg>
