<svg width="24" height="24" viewBox="0 0 24 24" fill="none" xmlns="http://www.w3.org/2000/svg">
<path d="M4 20V13H11L7.783 16.22C8.33247 16.7819 8.98837 17.2287 9.71241 17.5343C10.4364 17.8399 11.2141 17.9982 12 18C13.2393 17.9982 14.4475 17.6127 15.4589 16.8964C16.4702 16.1802 17.2349 15.1684 17.648 14H17.666C17.78 13.675 17.867 13.34 17.925 13H19.937C19.6934 14.9332 18.7527 16.7111 17.2913 17.9999C15.83 19.2887 13.9485 19.9999 12 20H11.99C10.9398 20.0031 9.89944 19.7979 8.9291 19.3963C7.95876 18.9946 7.07772 18.4045 6.337 17.66L4 20ZM6.074 11H4.062C4.30548 9.06746 5.24564 7.29014 6.70616 6.0014C8.16667 4.71266 10.0472 4.00103 11.995 3.99999H12C13.0504 3.99667 14.0909 4.20178 15.0615 4.60345C16.032 5.00512 16.9132 5.59536 17.654 6.33999L20 3.99999V11H13L16.222 7.77999C15.672 7.21747 15.0153 6.7703 14.2903 6.46466C13.5654 6.15902 12.7867 6.00105 12 5.99999C10.7607 6.00182 9.55246 6.38734 8.54114 7.10357C7.52982 7.8198 6.76508 8.83161 6.352 9.99999H6.334C6.219 10.325 6.132 10.66 6.075 11H6.074Z" fill="#CCCCCC"/>
</svg>
