<svg width="72" height="72" viewBox="0 0 72 72" fill="none" xmlns="http://www.w3.org/2000/svg">
<rect width="72" height="72" rx="36" fill="black"/>
<path d="M52.5562 26.4871C52.5562 26.3504 52.5259 26.2136 52.4651 26.0844C52.3435 25.8261 52.108 25.6513 51.8496 25.5981L36.3722 18.0912C36.1215 17.9696 35.8251 17.9696 35.5744 18.0912L19.945 25.6665C19.6411 25.8109 19.4435 26.1148 19.4283 26.4567V26.4643C19.4283 26.4719 19.4283 26.4795 19.4283 26.4947V45.5053C19.4283 45.8548 19.6259 46.1739 19.945 46.3259L35.5744 53.9012C35.582 53.9012 35.582 53.9012 35.5896 53.9088C35.6124 53.9164 35.6352 53.924 35.658 53.9392C35.6656 53.9392 35.6732 53.9468 35.6884 53.9468C35.7112 53.9544 35.734 53.962 35.7568 53.9696C35.7644 53.9696 35.7719 53.9772 35.7795 53.9772C35.8023 53.9848 35.8327 53.9848 35.8555 53.9924C35.8631 53.9924 35.8707 53.9924 35.8783 53.9924C35.9087 53.9924 35.9467 54 35.9771 54C36.0075 54 36.0455 54 36.0759 53.9924C36.0835 53.9924 36.0911 53.9924 36.0987 53.9924C36.1215 53.9924 36.1519 53.9848 36.1747 53.9772C36.1822 53.9772 36.1898 53.9696 36.1974 53.9696C36.2202 53.962 36.243 53.9544 36.2658 53.9468C36.2734 53.9468 36.281 53.9392 36.2962 53.9392C36.319 53.9316 36.3418 53.924 36.3646 53.9088C36.3722 53.9088 36.3722 53.9088 36.3798 53.9012L52.0548 46.3031C52.3663 46.1511 52.5714 45.832 52.5714 45.4825V26.5099C52.5562 26.5023 52.5562 26.4947 52.5562 26.4871ZM35.9695 19.9223L49.5246 26.4947L44.5326 28.9185L30.9775 22.3461L35.9695 19.9223ZM35.9695 33.0671L22.4144 26.4947L28.888 23.3567L42.4431 29.9291L35.9695 33.0671ZM21.2519 27.9612L35.0577 34.6551V51.6218L21.2519 44.9278V27.9612ZM36.8813 51.6218V34.6551L43.3625 31.5095V35.9468C43.3625 36.4483 43.7728 36.8586 44.2743 36.8586C44.7757 36.8586 45.1861 36.4483 45.1861 35.9468V30.6205L50.7327 27.9308V44.8974L36.8813 51.6218Z" fill="url(#paint0_linear_924_1115)"/>
<defs>
<linearGradient id="paint0_linear_924_1115" x1="42.8843" y1="54" x2="20.9358" y2="48.0195" gradientUnits="userSpaceOnUse">
<stop stop-color="#C3942F"/>
<stop offset="0.18" stop-color="#D89C27"/>
<stop offset="0.37" stop-color="#DFC86F"/>
<stop offset="0.5" stop-color="#DFC86F"/>
<stop offset="0.82" stop-color="#D89C27"/>
<stop offset="1" stop-color="#C99C30"/>
</linearGradient>
</defs>
</svg>
