<svg width="28" height="28" viewBox="0 0 28 28" fill="none" xmlns="http://www.w3.org/2000/svg">
<g clip-path="url(#clip0_2348_1982)">
<path d="M26.7921 11.9946H1.20846C1.1081 11.9946 1.01186 11.9547 0.940903 11.8837C0.869943 11.8128 0.830078 11.7165 0.830078 11.6162V8.8563C0.830077 8.79114 0.8469 8.72709 0.878918 8.67035C0.910936 8.6136 0.957064 8.56609 1.01283 8.5324L13.802 0.811214C13.861 0.775638 13.9286 0.756836 13.9975 0.756836C14.0663 0.756836 14.1339 0.775638 14.1929 0.811214L26.9874 8.5324C27.0431 8.56609 27.0893 8.6136 27.1213 8.67035C27.1533 8.72709 27.1701 8.79114 27.1701 8.8563V11.6162C27.1701 11.7165 27.1303 11.8127 27.0594 11.8836C26.9886 11.9546 26.8924 11.9945 26.7921 11.9946ZM1.58721 11.2378H26.4138V9.0697L13.998 1.57705L1.58721 9.06894V11.2378Z" fill="white"/>
<path d="M14.0004 9.1995C13.5528 9.1995 13.1152 9.06678 12.7431 8.8181C12.3709 8.56943 12.0809 8.21599 11.9096 7.80247C11.7383 7.38894 11.6935 6.93391 11.7808 6.49492C11.8681 6.05592 12.0836 5.65268 12.4001 5.33618C12.7166 5.01968 13.1199 4.80415 13.5589 4.71683C13.9979 4.6295 14.4529 4.67432 14.8664 4.84561C15.28 5.01689 15.6334 5.30696 15.8821 5.67912C16.1307 6.05128 16.2635 6.48883 16.2635 6.93642C16.2628 7.53641 16.0241 8.11163 15.5999 8.53589C15.1756 8.96015 14.6004 9.1988 14.0004 9.1995ZM14.0004 5.42972C13.7025 5.42972 13.4112 5.51806 13.1635 5.68358C12.9158 5.8491 12.7227 6.08435 12.6087 6.3596C12.4947 6.63484 12.4649 6.93771 12.523 7.22991C12.5811 7.52211 12.7246 7.79051 12.9353 8.00118C13.1459 8.21184 13.4143 8.3553 13.7065 8.41342C13.9987 8.47155 14.3016 8.44172 14.5768 8.32771C14.8521 8.2137 15.0873 8.02063 15.2529 7.77291C15.4184 7.5252 15.5067 7.23397 15.5067 6.93604C15.5062 6.53669 15.3473 6.15385 15.065 5.87146C14.7826 5.58908 14.3997 5.43022 14.0004 5.42972ZM24.5844 14.3848H20.5581C20.3413 14.3845 20.1336 14.2982 19.9803 14.145C19.8271 13.9917 19.741 13.7839 19.7408 13.5671V11.6162C19.7408 11.5159 19.7806 11.4196 19.8516 11.3487C19.9226 11.2777 20.0188 11.2378 20.1191 11.2378H25.0233C25.1237 11.2378 25.2199 11.2777 25.2909 11.3487C25.3618 11.4196 25.4017 11.5159 25.4017 11.6162V13.5683C25.4012 13.7848 25.3149 13.9923 25.1617 14.1454C25.0085 14.2984 24.8009 14.3845 24.5844 14.3848ZM20.4979 11.9934V13.5671C20.4979 13.5832 20.5043 13.5987 20.5156 13.6101C20.527 13.6215 20.5424 13.6279 20.5584 13.628H24.5844C24.6005 13.6279 24.6159 13.6215 24.6272 13.6101C24.6386 13.5987 24.6449 13.5832 24.6449 13.5671V11.9946L20.4979 11.9934Z" fill="white"/>
<path d="M24.2404 22.0277H20.9008C20.8005 22.0277 20.7042 21.9878 20.6333 21.9169C20.5623 21.8459 20.5225 21.7497 20.5225 21.6493V14.0061C20.5225 13.9057 20.5623 13.8095 20.6333 13.7385C20.7042 13.6676 20.8005 13.6277 20.9008 13.6277H24.2404C24.3408 13.6277 24.437 13.6676 24.508 13.7385C24.5789 13.8095 24.6188 13.9057 24.6188 14.0061V21.6493C24.6188 21.7497 24.5789 21.8459 24.508 21.9169C24.437 21.9878 24.3408 22.0277 24.2404 22.0277ZM21.2792 21.2709H23.862V14.3844H21.2792V21.2709Z" fill="white"/>
<path d="M25.0231 24.419H20.1189C20.0186 24.419 19.9224 24.3791 19.8514 24.3082C19.7804 24.2372 19.7406 24.141 19.7406 24.0406V22.0885C19.7408 21.8718 19.8269 21.664 19.9802 21.5107C20.1334 21.3574 20.3411 21.2712 20.5579 21.2709H24.5842C24.8009 21.2712 25.0087 21.3574 25.1619 21.5107C25.3151 21.664 25.4013 21.8718 25.4015 22.0885V24.0406C25.4015 24.141 25.3616 24.2372 25.2907 24.3082C25.2197 24.3791 25.1235 24.419 25.0231 24.419ZM20.4973 23.6622H24.6447V22.0885C24.6447 22.0725 24.6384 22.057 24.627 22.0456C24.6157 22.0342 24.6003 22.0277 24.5842 22.0276H20.5579C20.5418 22.0277 20.5264 22.0342 20.515 22.0456C20.5037 22.057 20.4973 22.0725 20.4973 22.0885V23.6622ZM16.0132 14.3848H11.9872C11.7705 14.3845 11.5627 14.2982 11.4095 14.1449C11.2563 13.9916 11.1701 13.7838 11.1699 13.5671V11.6162C11.1699 11.5158 11.2098 11.4196 11.2807 11.3486C11.3517 11.2777 11.4479 11.2378 11.5483 11.2378H16.4521C16.5524 11.2378 16.6487 11.2777 16.7196 11.3486C16.7906 11.4196 16.8305 11.5158 16.8305 11.6162V13.5682C16.83 13.7848 16.7437 13.9923 16.5905 14.1453C16.4373 14.2984 16.2297 14.3845 16.0132 14.3848ZM11.9267 11.9945V13.5682C11.9267 13.5843 11.933 13.5998 11.9444 13.6112C11.9557 13.6226 11.9711 13.629 11.9872 13.6291H16.0132C16.0293 13.629 16.0447 13.6226 16.056 13.6112C16.0673 13.5998 16.0737 13.5843 16.0737 13.5682V11.9945H11.9267Z" fill="white"/>
<path d="M15.6651 22.0277H12.3354C12.2351 22.0277 12.1388 21.9878 12.0679 21.9169C11.9969 21.8459 11.957 21.7497 11.957 21.6493V14.0061C11.957 13.9057 11.9969 13.8095 12.0679 13.7385C12.1388 13.6676 12.2351 13.6277 12.3354 13.6277H15.6651C15.7655 13.6277 15.8617 13.6676 15.9327 13.7385C16.0037 13.8095 16.0435 13.9057 16.0435 14.0061V21.6493C16.0435 21.7497 16.0037 21.8459 15.9327 21.9169C15.8617 21.9878 15.7655 22.0277 15.6651 22.0277ZM12.7138 21.2709H15.2868V14.3844H12.7138V21.2709Z" fill="white"/>
<path d="M16.4524 24.419H11.5486C11.4482 24.419 11.352 24.3791 11.281 24.3082C11.2101 24.2372 11.1702 24.141 11.1702 24.0406V22.0885C11.1704 21.8718 11.2565 21.664 11.4098 21.5107C11.563 21.3574 11.7708 21.2712 11.9875 21.2709H16.0134C16.2302 21.2712 16.4379 21.3574 16.5912 21.5107C16.7444 21.664 16.8305 21.8718 16.8307 22.0885V24.0406C16.8307 24.141 16.7909 24.2372 16.7199 24.3082C16.6489 24.3791 16.5527 24.419 16.4524 24.419ZM11.9266 23.6622H16.074V22.0885C16.074 22.0725 16.0676 22.057 16.0563 22.0456C16.0449 22.0342 16.0295 22.0277 16.0134 22.0276H11.9875C11.9714 22.0277 11.956 22.0342 11.9447 22.0456C11.9333 22.057 11.9269 22.0725 11.9269 22.0885L11.9266 23.6622ZM7.82116 14.3848H3.79484C3.5781 14.3845 3.37034 14.2982 3.21712 14.1449C3.0639 13.9916 2.97774 13.7838 2.97754 13.5671V11.6162C2.97754 11.5158 3.0174 11.4196 3.08836 11.3486C3.15932 11.2777 3.25557 11.2378 3.35592 11.2378H8.26008C8.36043 11.2378 8.45667 11.2777 8.52763 11.3486C8.59859 11.4196 8.63846 11.5158 8.63846 11.6162V13.5682C8.63796 13.7848 8.55167 13.9923 8.39848 14.1453C8.24529 14.2984 8.0377 14.3845 7.82116 14.3848ZM3.7343 11.9945V13.5682C3.7343 13.5843 3.74066 13.5998 3.752 13.6112C3.76335 13.6226 3.77875 13.629 3.79484 13.6291H7.82116C7.83725 13.629 7.85265 13.6226 7.86399 13.6112C7.87534 13.5998 7.8817 13.5843 7.8817 13.5682V11.9945H3.7343Z" fill="white"/>
<path d="M7.49204 22.0277H4.12447C4.02412 22.0277 3.92788 21.9878 3.85692 21.9169C3.78596 21.8459 3.74609 21.7497 3.74609 21.6493V14.0061C3.74609 13.9057 3.78596 13.8095 3.85692 13.7385C3.92788 13.6676 4.02412 13.6277 4.12447 13.6277H7.49204C7.59239 13.6277 7.68863 13.6676 7.75959 13.7385C7.83055 13.8095 7.87042 13.9057 7.87042 14.0061V21.6493C7.87042 21.7497 7.83055 21.8459 7.75959 21.9169C7.68863 21.9878 7.59239 22.0277 7.49204 22.0277ZM4.50285 21.2709H7.11366V14.3844H4.50285V21.2709Z" fill="white"/>
<path d="M8.26008 24.4191H3.35592C3.25557 24.4191 3.15932 24.3792 3.08836 24.3083C3.0174 24.2373 2.97754 24.1411 2.97754 24.0407V22.0887C2.97774 21.8719 3.0639 21.6641 3.21712 21.5108C3.37034 21.3576 3.5781 21.2713 3.79484 21.271H7.82116C8.0379 21.2713 8.24566 21.3576 8.39888 21.5108C8.5521 21.6641 8.63826 21.8719 8.63846 22.0887V24.0407C8.63846 24.1411 8.59859 24.2373 8.52763 24.3083C8.45667 24.3792 8.36043 24.4191 8.26008 24.4191ZM3.7343 23.6623H7.8817V22.0887C7.8817 22.0726 7.87534 22.0571 7.86399 22.0457C7.85265 22.0343 7.83725 22.0279 7.82116 22.0278H3.79484C3.77875 22.0279 3.76335 22.0343 3.752 22.0457C3.74066 22.0571 3.7343 22.0726 3.7343 22.0887V23.6623Z" fill="white"/>
<path d="M26.8649 27.2433H1.13521C1.03486 27.2433 0.93862 27.2035 0.86766 27.1325C0.796701 27.0615 0.756836 26.9653 0.756836 26.8649V24.0407C0.756836 23.9404 0.796701 23.8441 0.86766 23.7732C0.93862 23.7022 1.03486 23.6624 1.13521 23.6624H26.8649C26.9653 23.6624 27.0615 23.7022 27.1325 23.7732C27.2035 23.8441 27.2433 23.9404 27.2433 24.0407V26.8649C27.2433 26.9653 27.2035 27.0615 27.1325 27.1325C27.0615 27.2035 26.9653 27.2433 26.8649 27.2433ZM1.51359 26.4866H26.4866V24.4191H1.51359V26.4866Z" fill="white"/>
</g>
<defs>
<clipPath id="clip0_2348_1982">
<rect width="28" height="28" fill="white"/>
</clipPath>
</defs>
</svg>
