<svg width="28" height="28" viewBox="0 0 28 28" fill="none" xmlns="http://www.w3.org/2000/svg">
<path d="M26.9281 4.79053H3.27469C3.01942 4.79053 2.7746 4.89193 2.5941 5.07244C2.41359 5.25294 2.31219 5.49776 2.31219 5.75303V6.99334H1.07188C0.945478 6.99334 0.820318 7.01824 0.703542 7.06661C0.586766 7.11498 0.480661 7.18587 0.391285 7.27525C0.210781 7.45575 0.109375 7.70057 0.109375 7.95584V22.3233C0.109375 22.5786 0.210781 22.8234 0.391285 23.0039C0.480661 23.0933 0.586766 23.1642 0.703542 23.2126C0.820318 23.2609 0.945478 23.2858 1.07188 23.2858H24.7253C24.9806 23.2858 25.2254 23.1844 25.4059 23.0039C25.5864 22.8234 25.6878 22.5786 25.6878 22.3233V21.083H26.9281C27.1834 21.083 27.4282 20.9816 27.6087 20.8011C27.7892 20.6206 27.8906 20.3758 27.8906 20.1205V5.75303C27.8906 5.62663 27.8657 5.50147 27.8174 5.38469C27.769 5.26792 27.6981 5.16181 27.6087 5.07244C27.5193 4.98306 27.4132 4.91216 27.2965 4.86379C27.1797 4.81542 27.0545 4.79053 26.9281 4.79053ZM24.8128 22.3233C24.8128 22.3715 24.7734 22.4108 24.7253 22.4108H1.07188C1.02375 22.4108 0.984375 22.3715 0.984375 22.3233V7.95584C0.984375 7.90771 1.02375 7.86834 1.07188 7.86834H24.7253C24.7734 7.86834 24.8128 7.90771 24.8128 7.95584V22.3233ZM27.0156 20.1205C27.0156 20.1687 26.9762 20.208 26.9281 20.208H25.6878V7.95584C25.6878 7.82944 25.6629 7.70428 25.6145 7.58751C25.5662 7.47073 25.4953 7.36463 25.4059 7.27525C25.3165 7.18587 25.2104 7.11498 25.0936 7.06661C24.9769 7.01824 24.8517 6.99334 24.7253 6.99334H3.18719V5.75303C3.18719 5.7049 3.22656 5.66553 3.27469 5.66553H26.9281C26.9762 5.66553 27.0156 5.7049 27.0156 5.75303V20.1205Z" fill="white"/>
<path d="M23.1564 11.1539C22.2574 11.1539 21.5268 10.4232 21.5268 9.52417C21.5268 9.28354 21.3299 9.08667 21.0893 9.08667H4.70488C4.46426 9.08667 4.26738 9.28354 4.26738 9.52417C4.26738 10.4232 3.53676 11.1539 2.6377 11.1539C2.39707 11.1539 2.2002 11.3507 2.2002 11.5914V18.6854C2.2002 18.926 2.39707 19.1229 2.6377 19.1229C3.53676 19.1229 4.26738 19.8535 4.26738 20.7526C4.26738 20.9932 4.46426 21.1901 4.70488 21.1901H21.0914C21.3321 21.1901 21.5289 20.9932 21.5289 20.7526C21.5289 19.8535 22.2596 19.1229 23.1586 19.1229C23.3993 19.1229 23.5961 18.926 23.5961 18.6854V11.5914C23.5939 11.3507 23.3993 11.1539 23.1564 11.1539ZM22.7189 18.2873C22.2142 18.3776 21.7493 18.6204 21.3868 18.9829C21.0242 19.3455 20.7815 19.8104 20.6911 20.3151H5.1052C5.01487 19.8104 4.7721 19.3455 4.40955 18.9829C4.047 18.6204 3.58208 18.3776 3.07738 18.2873V11.9917C3.58208 11.9013 4.047 11.6586 4.40955 11.296C4.7721 10.9335 5.01487 10.4686 5.1052 9.96386H20.6911C20.7815 10.4686 21.0242 10.9335 21.3868 11.296C21.7493 11.6586 22.2142 11.9013 22.7189 11.9917V18.2873Z" fill="white"/>
<path d="M12.8996 11.3662C10.8193 11.3662 9.12621 13.0593 9.12621 15.1396C9.12621 17.22 10.8193 18.9131 12.8996 18.9131C14.98 18.9131 16.6731 17.22 16.6731 15.1396C16.6709 13.0593 14.98 11.3662 12.8996 11.3662ZM12.8996 18.0381C11.3028 18.0381 10.0012 16.7387 10.0012 15.1396C10.0012 13.5406 11.3006 12.2412 12.8996 12.2412C14.4987 12.2412 15.7981 13.5406 15.7981 15.1396C15.7981 16.7387 14.4965 18.0381 12.8996 18.0381ZM6.04402 13.4618C5.11871 13.4618 4.36621 14.2143 4.36621 15.1396C4.36621 16.065 5.11871 16.8175 6.04402 16.8175C6.96934 16.8175 7.72184 16.065 7.72184 15.1396C7.72184 14.2143 6.96934 13.4618 6.04402 13.4618ZM6.04402 15.9425C5.60215 15.9425 5.24121 15.5815 5.24121 15.1396C5.24121 14.6978 5.60215 14.3368 6.04402 14.3368C6.4859 14.3368 6.84684 14.6978 6.84684 15.1396C6.84684 15.5815 6.4859 15.9425 6.04402 15.9425ZM19.7531 13.4618C18.8278 13.4618 18.0753 14.2143 18.0753 15.1396C18.0753 16.065 18.8278 16.8175 19.7531 16.8175C20.6784 16.8175 21.4309 16.065 21.4309 15.1396C21.4309 14.2143 20.6784 13.4618 19.7531 13.4618ZM19.7531 15.9425C19.3112 15.9425 18.9503 15.5815 18.9503 15.1396C18.9503 14.6978 19.3112 14.3368 19.7531 14.3368C20.195 14.3368 20.5559 14.6978 20.5559 15.1396C20.5559 15.5815 20.195 15.9425 19.7531 15.9425Z" fill="white"/>
</svg>
