<svg width="73" height="72" viewBox="0 0 73 72" fill="none" xmlns="http://www.w3.org/2000/svg">
<rect x="0.5" width="72" height="72" rx="36" fill="black"/>
<path d="M53.0562 26.4871C53.0562 26.3504 53.0259 26.2136 52.9651 26.0844C52.8435 25.8261 52.608 25.6513 52.3496 25.5981L36.8722 18.0912C36.6215 17.9696 36.3251 17.9696 36.0744 18.0912L20.445 25.6665C20.1411 25.8109 19.9435 26.1148 19.9283 26.4567V26.4643C19.9283 26.4719 19.9283 26.4795 19.9283 26.4947V45.5053C19.9283 45.8548 20.1259 46.1739 20.445 46.3259L36.0744 53.9012C36.082 53.9012 36.082 53.9012 36.0896 53.9088C36.1124 53.9164 36.1352 53.924 36.158 53.9392C36.1656 53.9392 36.1732 53.9468 36.1884 53.9468C36.2112 53.9544 36.234 53.962 36.2568 53.9696C36.2644 53.9696 36.2719 53.9772 36.2795 53.9772C36.3023 53.9848 36.3327 53.9848 36.3555 53.9924C36.3631 53.9924 36.3707 53.9924 36.3783 53.9924C36.4087 53.9924 36.4467 54 36.4771 54C36.5075 54 36.5455 54 36.5759 53.9924C36.5835 53.9924 36.5911 53.9924 36.5987 53.9924C36.6215 53.9924 36.6519 53.9848 36.6747 53.9772C36.6822 53.9772 36.6898 53.9696 36.6974 53.9696C36.7202 53.962 36.743 53.9544 36.7658 53.9468C36.7734 53.9468 36.781 53.9392 36.7962 53.9392C36.819 53.9316 36.8418 53.924 36.8646 53.9088C36.8722 53.9088 36.8722 53.9088 36.8798 53.9012L52.5548 46.3031C52.8663 46.1511 53.0714 45.832 53.0714 45.4825V26.5099C53.0562 26.5023 53.0562 26.4947 53.0562 26.4871ZM36.4695 19.9223L50.0246 26.4947L45.0326 28.9185L31.4775 22.3461L36.4695 19.9223ZM36.4695 33.0671L22.9144 26.4947L29.388 23.3567L42.9431 29.9291L36.4695 33.0671ZM21.7519 27.9612L35.5577 34.6551V51.6218L21.7519 44.9278V27.9612ZM37.3813 51.6218V34.6551L43.8625 31.5095V35.9468C43.8625 36.4483 44.2728 36.8586 44.7743 36.8586C45.2757 36.8586 45.6861 36.4483 45.6861 35.9468V30.6205L51.2327 27.9308V44.8974L37.3813 51.6218Z" fill="url(#paint0_linear_388_1137)"/>
<defs>
<linearGradient id="paint0_linear_388_1137" x1="43.3843" y1="54" x2="21.4358" y2="48.0195" gradientUnits="userSpaceOnUse">
<stop stop-color="#C3942F"/>
<stop offset="0.18" stop-color="#D89C27"/>
<stop offset="0.37" stop-color="#DFC86F"/>
<stop offset="0.5" stop-color="#DFC86F"/>
<stop offset="0.82" stop-color="#D89C27"/>
<stop offset="1" stop-color="#C99C30"/>
</linearGradient>
</defs>
</svg>
