<svg width="44" height="44" viewBox="0 0 44 44" fill="none" xmlns="http://www.w3.org/2000/svg">
<g clip-path="url(#clip0_924_1256)">
<path d="M2.93335 35.2H22V36.6667H2.93335V35.2ZM12.4667 41.8C11.2517 41.8 10.2667 40.815 10.2667 39.6C10.2667 38.3851 11.2517 37.4 12.4667 37.4C13.6816 37.4 14.6667 38.3851 14.6667 39.6C14.6667 40.815 13.6816 41.8 12.4667 41.8ZM12.4667 38.8667C12.2722 38.8667 12.0857 38.9439 11.9481 39.0815C11.8106 39.219 11.7333 39.4055 11.7333 39.6C11.7333 39.7945 11.8106 39.981 11.9481 40.1186C12.0857 40.2561 12.2722 40.3333 12.4667 40.3333C12.6612 40.3333 12.8477 40.2561 12.9852 40.1186C13.1228 39.981 13.2 39.7945 13.2 39.6C13.2 39.4055 13.1228 39.219 12.9852 39.0815C12.8477 38.9439 12.6612 38.8667 12.4667 38.8667Z" fill="white"/>
<path d="M23.4667 40.3333C23.4667 41.5483 22.4816 42.5333 21.2667 42.5333H3.66667C2.45172 42.5333 1.46667 41.5483 1.46667 40.3333V3.66667C1.46667 2.45172 2.45172 1.46667 3.66667 1.46667H5.13333V2.2C5.13333 3.41495 6.11838 4.4 7.33333 4.4H17.6C18.815 4.4 19.8 3.41495 19.8 2.2V1.46667H21.2667C22.4816 1.46667 23.4667 2.45172 23.4667 3.66667V8.8H24.9333V3.66667C24.9309 1.64248 23.2909 0.002475 21.2667 0H3.66667C1.64248 0.002475 0.002475 1.64248 0 3.66667V40.3333C0.002475 42.3575 1.64248 43.9975 3.66667 44H21.2667C23.2909 43.9975 24.9309 42.3575 24.9333 40.3333V23.4667H23.4667V40.3333ZM6.6 1.46667H18.3333V2.2C18.3333 2.39449 18.2561 2.58102 18.1185 2.71854C17.981 2.85607 17.7945 2.93333 17.6 2.93333H7.33333C7.13884 2.93333 6.95232 2.85607 6.81479 2.71854C6.67726 2.58102 6.6 2.39449 6.6 2.2V1.46667Z" fill="white"/>
<path d="M10.2666 10.2667V22H43.9999V10.2667H10.2666ZM42.5333 20.5333H11.7333V11.7333H42.5333V20.5333Z" fill="white"/>
<path d="M13.9599 18.2353L15.4 17.4034V19.0667H16.8666V17.4034L18.3067 18.2353L19.0401 16.9648L17.6 16.1333L19.0401 15.3019L18.3067 14.0314L16.8666 14.8633V13.2H15.4V14.8633L13.9599 14.0314L13.2266 15.3019L14.6666 16.1333L13.2266 16.9648L13.9599 18.2353ZM21.2932 18.2353L22.7333 17.4034V19.0667H24.2V17.4034L25.6401 18.2353L26.3734 16.9648L24.9333 16.1333L26.3734 15.3019L25.6401 14.0314L24.2 14.8633V13.2H22.7333V14.8633L21.2932 14.0314L20.5599 15.3019L22 16.1333L20.5599 16.9648L21.2932 18.2353ZM28.6266 18.2353L30.0666 17.4034V19.0667H31.5333V17.4034L32.9734 18.2353L33.7067 16.9648L32.2666 16.1333L33.7067 15.3019L32.9734 14.0314L31.5333 14.8633V13.2H30.0666V14.8633L28.6266 14.0314L27.8932 15.3019L29.3333 16.1333L27.8932 16.9648L28.6266 18.2353ZM35.9599 18.2353L37.4 17.4034V19.0667H38.8666V17.4034L40.3067 18.2353L41.0401 16.9648L39.6 16.1333L41.0401 15.3019L40.3067 14.0314L38.8666 14.8633V13.2H37.4V14.8633L35.9599 14.0314L35.2266 15.3019L36.6666 16.1333L35.2266 16.9648L35.9599 18.2353Z" fill="white"/>
</g>
<defs>
<clipPath id="clip0_924_1256">
<rect width="44" height="44" fill="white"/>
</clipPath>
</defs>
</svg>
