<svg width="73" height="72" viewBox="0 0 73 72" fill="none" xmlns="http://www.w3.org/2000/svg">
<rect x="0.5" width="72" height="72" rx="36" fill="black"/>
<path d="M50.8821 49.201L48.8105 25.8543C48.7732 25.3923 48.3857 25.042 47.9162 25.042H43.5494C43.542 21.1596 40.3824 18 36.5 18C32.6175 18 29.458 21.1596 29.4505 25.042H25.0837C24.6217 25.042 24.2342 25.3923 24.1895 25.8543L22.1179 49.201C22.1179 49.2308 22.1179 49.2532 22.1179 49.283C22.1179 51.8837 24.5099 54 27.4459 54H45.554C48.49 54 50.8821 51.8837 50.8821 49.283C50.8821 49.2532 50.8821 49.2308 50.8821 49.201ZM36.5 19.7884C39.3988 19.7884 41.7535 22.1432 41.761 25.042H31.239C31.2464 22.1432 33.6012 19.7884 36.5 19.7884ZM45.554 52.2041H27.4459C25.5085 52.2041 23.9287 50.9149 23.9063 49.3128L25.9034 26.8305H29.4505V29.9677C29.4505 30.4595 29.8529 30.8619 30.3447 30.8619C30.8366 30.8619 31.239 30.4595 31.239 29.9677V26.8305H41.761V29.9677C41.761 30.4595 42.1634 30.8619 42.6552 30.8619C43.147 30.8619 43.5494 30.4595 43.5494 29.9677V26.8305H47.0965L49.0936 49.3202C49.0713 50.9149 47.4915 52.2041 45.554 52.2041Z" fill="url(#paint0_linear_388_1127)"/>
<path d="M40.2185 36.6148L34.9425 41.8908L32.789 39.7372C32.4387 39.3869 31.8724 39.3869 31.5221 39.7372C31.1719 40.0874 31.1719 40.6537 31.5221 41.004L34.3091 43.791C34.4805 43.9624 34.7115 44.0518 34.9425 44.0518C35.1736 44.0518 35.3971 43.9624 35.576 43.791L41.4853 37.8816C41.8355 37.5314 41.8355 36.9651 41.4853 36.6148C41.135 36.272 40.5687 36.272 40.2185 36.6148Z" fill="url(#paint1_linear_388_1127)"/>
<defs>
<linearGradient id="paint0_linear_388_1127" x1="42.4748" y1="54" x2="23.0956" y2="49.4172" gradientUnits="userSpaceOnUse">
<stop stop-color="#C3942F"/>
<stop offset="0.18" stop-color="#D89C27"/>
<stop offset="0.37" stop-color="#DFC86F"/>
<stop offset="0.5" stop-color="#DFC86F"/>
<stop offset="0.82" stop-color="#D89C27"/>
<stop offset="1" stop-color="#C99C30"/>
</linearGradient>
<linearGradient id="paint1_linear_388_1127" x1="38.6824" y1="44.0518" x2="32.2654" y2="41.4628" gradientUnits="userSpaceOnUse">
<stop stop-color="#C3942F"/>
<stop offset="0.18" stop-color="#D89C27"/>
<stop offset="0.37" stop-color="#DFC86F"/>
<stop offset="0.5" stop-color="#DFC86F"/>
<stop offset="0.82" stop-color="#D89C27"/>
<stop offset="1" stop-color="#C99C30"/>
</linearGradient>
</defs>
</svg>
