<svg width="37" height="36" viewBox="0 0 37 36" fill="none" xmlns="http://www.w3.org/2000/svg">
<path d="M32.8821 31.201L30.8105 7.85427C30.7732 7.39226 30.3857 7.04202 29.9162 7.04202H25.5494C25.542 3.15959 22.3824 0 18.5 0C14.6175 0 11.458 3.15959 11.4505 7.04202H7.0837C6.62169 7.04202 6.23419 7.39226 6.18948 7.85427L4.11786 31.201C4.11786 31.2308 4.11786 31.2532 4.11786 31.283C4.11786 33.8837 6.50991 36 9.44595 36H27.554C30.49 36 32.8821 33.8837 32.8821 31.283C32.8821 31.2532 32.8821 31.2308 32.8821 31.201ZM18.5 1.78845C21.3988 1.78845 23.7535 4.14324 23.761 7.04202H13.239C13.2464 4.14324 15.6012 1.78845 18.5 1.78845ZM27.554 34.2041H9.44595C7.50846 34.2041 5.92866 32.9149 5.90631 31.3128L7.90341 8.83047H11.4505V11.9677C11.4505 12.4595 11.8529 12.8619 12.3447 12.8619C12.8366 12.8619 13.239 12.4595 13.239 11.9677V8.83047H23.761V11.9677C23.761 12.4595 24.1634 12.8619 24.6552 12.8619C25.147 12.8619 25.5494 12.4595 25.5494 11.9677V8.83047H29.0965L31.0936 31.3202C31.0713 32.9149 29.4915 34.2041 27.554 34.2041Z" fill="url(#paint0_linear_388_1128)"/>
<path d="M22.2185 18.6148L16.9425 23.8908L14.789 21.7372C14.4387 21.3869 13.8724 21.3869 13.5221 21.7372C13.1719 22.0874 13.1719 22.6537 13.5221 23.004L16.3091 25.791C16.4805 25.9624 16.7115 26.0518 16.9425 26.0518C17.1736 26.0518 17.3971 25.9624 17.576 25.791L23.4853 19.8816C23.8355 19.5314 23.8355 18.9651 23.4853 18.6148C23.135 18.272 22.5687 18.272 22.2185 18.6148Z" fill="url(#paint1_linear_388_1128)"/>
<defs>
<linearGradient id="paint0_linear_388_1128" x1="24.4748" y1="36" x2="5.09561" y2="31.4172" gradientUnits="userSpaceOnUse">
<stop stop-color="#C3942F"/>
<stop offset="0.18" stop-color="#D89C27"/>
<stop offset="0.37" stop-color="#DFC86F"/>
<stop offset="0.5" stop-color="#DFC86F"/>
<stop offset="0.82" stop-color="#D89C27"/>
<stop offset="1" stop-color="#C99C30"/>
</linearGradient>
<linearGradient id="paint1_linear_388_1128" x1="20.6824" y1="26.0518" x2="14.2654" y2="23.4628" gradientUnits="userSpaceOnUse">
<stop stop-color="#C3942F"/>
<stop offset="0.18" stop-color="#D89C27"/>
<stop offset="0.37" stop-color="#DFC86F"/>
<stop offset="0.5" stop-color="#DFC86F"/>
<stop offset="0.82" stop-color="#D89C27"/>
<stop offset="1" stop-color="#C99C30"/>
</linearGradient>
</defs>
</svg>
