<svg width="72" height="72" viewBox="0 0 72 72" fill="none" xmlns="http://www.w3.org/2000/svg">
<rect width="72" height="72" rx="36" fill="black"/>
<path d="M50.382 49.201L48.3104 25.8543C48.2732 25.3923 47.8857 25.042 47.4162 25.042H43.0494C43.0419 21.1596 39.8823 18 35.9999 18C32.1175 18 28.9579 21.1596 28.9504 25.042H24.5836C24.1216 25.042 23.7341 25.3923 23.6894 25.8543L21.6178 49.201C21.6178 49.2308 21.6178 49.2532 21.6178 49.283C21.6178 51.8837 24.0098 54 26.9459 54H45.0539C47.99 54 50.382 51.8837 50.382 49.283C50.382 49.2532 50.382 49.2308 50.382 49.201ZM35.9999 19.7884C38.8987 19.7884 41.2535 22.1432 41.2609 25.042H30.7389C30.7463 22.1432 33.1011 19.7884 35.9999 19.7884ZM45.0539 52.2041H26.9459C25.0084 52.2041 23.4286 50.9149 23.4062 49.3128L25.4033 26.8305H28.9504V29.9677C28.9504 30.4595 29.3528 30.8619 29.8447 30.8619C30.3365 30.8619 30.7389 30.4595 30.7389 29.9677V26.8305H41.2609V29.9677C41.2609 30.4595 41.6633 30.8619 42.1552 30.8619C42.647 30.8619 43.0494 30.4595 43.0494 29.9677V26.8305H46.5965L48.5936 49.3202C48.5712 50.9149 46.9914 52.2041 45.0539 52.2041Z" fill="url(#paint0_linear_924_1105)"/>
<path d="M39.7184 36.6148L34.4425 41.8907L32.2889 39.7371C31.9387 39.3869 31.3723 39.3869 31.0221 39.7371C30.6718 40.0873 30.6718 40.6537 31.0221 41.0039L33.8091 43.7909C33.9805 43.9623 34.2115 44.0517 34.4425 44.0517C34.6735 44.0517 34.897 43.9623 35.0759 43.7909L40.9852 37.8816C41.3355 37.5313 41.3355 36.965 40.9852 36.6148C40.635 36.272 40.0686 36.272 39.7184 36.6148Z" fill="url(#paint1_linear_924_1105)"/>
<defs>
<linearGradient id="paint0_linear_924_1105" x1="41.9747" y1="54" x2="22.5956" y2="49.4172" gradientUnits="userSpaceOnUse">
<stop stop-color="#C3942F"/>
<stop offset="0.18" stop-color="#D89C27"/>
<stop offset="0.37" stop-color="#DFC86F"/>
<stop offset="0.5" stop-color="#DFC86F"/>
<stop offset="0.82" stop-color="#D89C27"/>
<stop offset="1" stop-color="#C99C30"/>
</linearGradient>
<linearGradient id="paint1_linear_924_1105" x1="38.1823" y1="44.0517" x2="31.7653" y2="41.4627" gradientUnits="userSpaceOnUse">
<stop stop-color="#C3942F"/>
<stop offset="0.18" stop-color="#D89C27"/>
<stop offset="0.37" stop-color="#DFC86F"/>
<stop offset="0.5" stop-color="#DFC86F"/>
<stop offset="0.82" stop-color="#D89C27"/>
<stop offset="1" stop-color="#C99C30"/>
</linearGradient>
</defs>
</svg>
