<svg width="44" height="44" viewBox="0 0 44 44" fill="none" xmlns="http://www.w3.org/2000/svg">
<path d="M34.3869 0.0137482H15.5847C13.7187 0.0160224 11.9298 0.758284 10.6104 2.07772C9.29092 3.39717 8.54866 5.18606 8.54639 7.05203V11.3953C8.54639 11.9423 8.76369 12.4669 9.15048 12.8537C9.53727 13.2405 10.0619 13.4578 10.6089 13.4578C11.1559 13.4578 11.6805 13.2405 12.0673 12.8537C12.4541 12.4669 12.6714 11.9423 12.6714 11.3953V7.05203C12.6723 6.27966 12.9795 5.53918 13.5257 4.99303C14.0718 4.44688 14.8123 4.13966 15.5847 4.13875H34.3869C35.1588 4.14034 35.8985 4.4479 36.444 4.99399C36.9894 5.54009 37.2961 6.28018 37.2968 7.05203V36.948C37.2961 37.7203 36.9891 38.4607 36.443 39.0069C35.897 39.5531 35.1566 39.8603 34.3844 39.8612H15.5847C14.8123 39.8603 14.0718 39.5531 13.5257 39.007C12.9795 38.4608 12.6723 37.7203 12.6714 36.948V31.9232C12.6714 31.3762 12.4541 30.8516 12.0673 30.4648C11.6805 30.078 11.1559 29.8607 10.6089 29.8607C10.0619 29.8607 9.53727 30.078 9.15048 30.4648C8.76369 30.8516 8.54639 31.3762 8.54639 31.9232V36.948C8.54866 38.8139 9.29092 40.6028 10.6104 41.9223C11.9298 43.2417 13.7187 43.984 15.5847 43.9862H34.3869C36.2523 43.9831 38.0403 43.2404 39.359 41.9211C40.6777 40.6017 41.4195 38.8133 41.4218 36.948V7.05203C41.4195 5.18665 40.6777 3.39828 39.359 2.07894C38.0403 0.759594 36.2523 0.0169316 34.3869 0.0137482Z" fill="white"/>
<path d="M31.3363 20.4987L23.9972 13.1639C23.6153 12.7819 23.0989 12.565 22.5588 12.5597C22.0187 12.5544 21.4981 12.7611 21.1088 13.1355C20.2752 13.9373 20.295 15.2952 21.1131 16.1133L24.9348 19.9375H4.64062C4.09362 19.9375 3.56901 20.1548 3.18222 20.5416C2.79542 20.9284 2.57813 21.453 2.57812 22C2.57813 22.547 2.79542 23.0716 3.18222 23.4584C3.56901 23.8452 4.09362 24.0625 4.64062 24.0625H24.9356L21.077 27.9211C20.6901 28.3079 20.4727 28.8325 20.4727 29.3796C20.4726 29.9267 20.6898 30.4513 21.0766 30.8382C21.4634 31.2251 21.988 31.4425 22.5351 31.4426C23.0822 31.4427 23.6069 31.2255 23.9938 30.8387L31.3363 23.4988C31.5335 23.3019 31.69 23.0681 31.7968 22.8107C31.9035 22.5533 31.9585 22.2774 31.9585 21.9987C31.9585 21.72 31.9035 21.4441 31.7968 21.1867C31.69 20.9293 31.5335 20.6955 31.3363 20.4987Z" fill="white"/>
</svg>
