<svg width="15" height="15" viewBox="0 0 15 15" fill="none" xmlns="http://www.w3.org/2000/svg">
<path d="M6.79483 13.7275H6.81756C6.9312 13.7048 7.02211 13.5912 7.02211 13.4775L6.34029 7.56845C6.31756 7.45481 6.20392 7.34117 6.09029 7.3639C5.97665 7.38663 5.88574 7.50026 5.88574 7.6139L6.56756 13.523C6.59029 13.6366 6.6812 13.7275 6.79483 13.7275ZM9.95392 13.7275H9.97665C10.0903 13.7275 10.1812 13.6366 10.2039 13.523L10.8857 7.6139C10.9085 7.50026 10.8176 7.38663 10.6812 7.3639C10.5676 7.34117 10.4539 7.43208 10.4312 7.56845L9.74938 13.4775C9.74938 13.5912 9.84029 13.7048 9.95392 13.7275Z" fill="white"/>
<path d="M13.3175 5.3639C13.522 5.04572 13.4311 4.63663 13.1129 4.40936L11.1584 3.13663L11.3402 2.88663C11.4311 2.72754 11.4765 2.54572 11.4311 2.3639C11.3856 2.18208 11.2947 2.02299 11.1356 1.93208L9.81745 1.06845C9.70382 1.00027 9.56745 0.954812 9.45382 0.954812C9.22654 0.954812 8.99927 1.06845 8.88563 1.25027L8.70382 1.52299L6.84018 0.318448C6.74927 0.272994 6.61291 0.227539 6.47654 0.227539C6.24927 0.227539 6.022 0.341175 5.90836 0.545721L5.34018 1.40936C5.272 1.52299 5.29472 1.65936 5.40836 1.72754L12.4538 6.29572C12.4993 6.31845 12.522 6.34118 12.5675 6.34118H4.20382C4.06745 6.34118 3.95382 6.45481 3.97654 6.59118L5.13563 14.1821C5.18109 14.523 5.47654 14.773 5.81745 14.773H10.9993C11.3402 14.773 11.6356 14.523 11.6811 14.1821C12.8629 6.20481 12.9084 6.54572 12.772 6.40936C12.7265 6.3639 12.6584 6.34118 12.5902 6.34118H12.5675C12.8175 6.31845 12.8402 5.97754 13.3175 5.3639ZM9.272 1.54572C9.34018 1.45481 9.47654 1.40936 9.59018 1.47754L10.9084 2.34118C10.9538 2.3639 10.9993 2.43208 10.9993 2.47754C11.022 2.54572 10.9993 2.59118 10.9765 2.63663L10.7947 2.88663L9.09018 1.77299L9.272 1.54572ZM11.2038 14.1139C11.1811 14.2275 11.0902 14.3184 10.9765 14.3184H5.79473C5.68109 14.3184 5.59018 14.2275 5.56745 14.1139L4.45382 6.77299H12.3175L11.2038 14.1139ZM5.84018 1.45481L6.272 0.772994C6.36291 0.682085 6.49927 0.659357 6.61291 0.727539L12.8856 4.79572C12.9993 4.8639 13.022 5.00027 12.9538 5.1139L12.522 5.79572L5.84018 1.45481Z" fill="white"/>
<path d="M8.38595 13.7275C8.52232 13.7275 8.61323 13.6366 8.61323 13.5003V7.59117C8.61323 7.45481 8.52232 7.3639 8.38595 7.3639C8.24959 7.3639 8.15868 7.45481 8.15868 7.59117V13.5003C8.15868 13.6366 8.27232 13.7275 8.38595 13.7275ZM5.3405 5.77299C5.43141 5.77299 5.49959 5.72754 5.54504 5.63663L6.47686 3.56845C6.52232 3.45481 6.47686 3.31845 6.36323 3.27299L4.95413 2.63663L2.90868 0.818446C2.79504 0.727537 2.61323 0.750264 2.54504 0.886628L1.5905 3.1139C1.52232 3.27299 1.63595 3.43208 1.79504 3.43208H2.70413V4.79572C2.70413 4.88663 2.77232 4.97754 2.86323 5.02299L5.27232 5.75026C5.31777 5.77299 5.3405 5.77299 5.3405 5.77299ZM3.15868 4.63663V3.20481C3.15868 3.06845 3.06777 2.97754 2.93141 2.97754H2.13595L2.86323 1.3639L4.70413 3.00026C4.72686 3.02299 4.74959 3.02299 4.77232 3.04572L5.99959 3.59117L5.22686 5.27299L3.15868 4.63663Z" fill="white"/>
</svg>
