<svg width="73" height="72" viewBox="0 0 73 72" fill="none" xmlns="http://www.w3.org/2000/svg">
<rect x="0.5" width="72" height="72" rx="36" fill="black"/>
<g clip-path="url(#clip0_388_1112)">
<path d="M49.2021 42.3042C48.2247 42.3042 47.2962 42.687 46.5957 43.3793C45.8952 44.0798 45.5043 44.9921 45.5043 45.9694C45.5043 46.9468 45.8871 47.8591 46.5957 48.5596C47.3043 49.2519 48.2247 49.6347 49.2021 49.6347C51.2058 49.6347 52.8348 47.9894 52.8348 45.9694C52.8348 43.9495 51.2058 42.3042 49.2021 42.3042ZM49.2021 48.0057C48.0781 48.0057 47.1333 47.0772 47.1333 45.9694C47.1333 44.8617 48.0781 43.9332 49.2021 43.9332C50.3098 43.9332 51.2058 44.8454 51.2058 45.9694C51.2058 47.0935 50.3098 48.0057 49.2021 48.0057ZM50.1469 30.0949C50.0003 29.9564 49.8048 29.8831 49.6012 29.8831H45.4228C44.9749 29.8831 44.6083 30.2496 44.6083 30.6976V37.3765C44.6083 37.8245 44.9749 38.191 45.4228 38.191H52.0528C52.5008 38.191 52.8673 37.8245 52.8673 37.3765V32.9049C52.8673 32.6768 52.7696 32.4569 52.5986 32.3022L50.1469 30.0949ZM51.2383 36.562H46.2373V31.504H49.2835L51.2383 33.2633V36.562ZM29.3121 42.3042C28.3347 42.3042 27.4061 42.687 26.7057 43.3793C26.0052 44.0798 25.6142 44.9921 25.6142 45.9694C25.6142 46.9468 25.997 47.8591 26.7057 48.5596C27.4143 49.2519 28.3347 49.6347 29.3121 49.6347C31.3157 49.6347 32.9447 47.9894 32.9447 45.9694C32.9447 43.9495 31.3157 42.3042 29.3121 42.3042ZM29.3121 48.0057C28.188 48.0057 27.2432 47.0772 27.2432 45.9694C27.2432 44.8617 28.188 43.9332 29.3121 43.9332C30.4198 43.9332 31.3157 44.8454 31.3157 45.9694C31.3157 47.0935 30.4198 48.0057 29.3121 48.0057ZM23.8794 43.306H22.2422V41.1395C22.2422 40.6915 21.8757 40.325 21.4277 40.325C20.9797 40.325 20.6132 40.6915 20.6132 41.1395V44.1205C20.6132 44.5685 20.9797 44.935 21.4277 44.935H23.8794C24.3273 44.935 24.6939 44.5685 24.6939 44.1205C24.6939 43.6726 24.3273 43.306 23.8794 43.306ZM28.0089 38.867C28.0089 38.4191 27.6423 38.0525 27.1944 38.0525H17.3145C16.8665 38.0525 16.5 38.4191 16.5 38.867C16.5 39.315 16.8665 39.6815 17.3145 39.6815H27.1944C27.6423 39.6815 28.0089 39.3231 28.0089 38.867ZM18.9679 35.9267L28.8478 35.9837C29.2958 35.9837 29.6623 35.6253 29.6704 35.1773C29.6786 34.7212 29.3121 34.3547 28.8641 34.3547L18.9842 34.2977C18.9761 34.2977 18.9761 34.2977 18.9761 34.2977C18.5281 34.2977 18.1616 34.6561 18.1616 35.104C18.1534 35.5602 18.52 35.9267 18.9679 35.9267ZM20.6295 32.2289H30.5094C30.9573 32.2289 31.3239 31.8623 31.3239 31.4144C31.3239 30.9664 30.9573 30.5999 30.5094 30.5999H20.6295C20.1815 30.5999 19.815 30.9664 19.815 31.4144C19.815 31.8623 20.1815 32.2289 20.6295 32.2289ZM56.1986 31.1293L50.3668 26.2993C50.2202 26.1771 50.041 26.112 49.8456 26.112H42.9875V23.1798C42.9875 22.7318 42.621 22.3653 42.173 22.3653H21.4277C20.9797 22.3653 20.6132 22.7318 20.6132 23.1798V29.1419C20.6132 29.5899 20.9797 29.9564 21.4277 29.9564C21.8757 29.9564 22.2422 29.5899 22.2422 29.1419V23.9943H41.3666V43.306H34.6877C34.2398 43.306 33.8732 43.6726 33.8732 44.1205C33.8732 44.5685 34.2398 44.935 34.6877 44.935H44.6328C45.0807 44.935 45.4473 44.5685 45.4473 44.1205C45.4473 43.6726 45.0807 43.306 44.6328 43.306H42.9956V27.741H49.5605L54.871 32.1393L54.814 43.2897H53.9669C53.5189 43.2897 53.1524 43.6563 53.1524 44.1042C53.1524 44.5522 53.5189 44.9187 53.9669 44.9187H55.6203C56.0683 44.9187 56.4348 44.5604 56.4348 44.1124L56.5 31.7646C56.4919 31.5203 56.386 31.284 56.1986 31.1293Z" fill="url(#paint0_linear_388_1112)"/>
</g>
<defs>
<linearGradient id="paint0_linear_388_1112" x1="44.8087" y1="49.6347" x2="20.8654" y2="39.24" gradientUnits="userSpaceOnUse">
<stop stop-color="#C3942F"/>
<stop offset="0.18" stop-color="#D89C27"/>
<stop offset="0.37" stop-color="#DFC86F"/>
<stop offset="0.5" stop-color="#DFC86F"/>
<stop offset="0.82" stop-color="#D89C27"/>
<stop offset="1" stop-color="#C99C30"/>
</linearGradient>
<clipPath id="clip0_388_1112">
<rect width="40" height="40" fill="white" transform="translate(16.5 16)"/>
</clipPath>
</defs>
</svg>
